<svg width="25" height="53" viewBox="0 0 25 53" fill="none" xmlns="http://www.w3.org/2000/svg">
	<g filter="url(#filter0_d_0_2964)">
		<path fill-rule="evenodd" clip-rule="evenodd"
					d="M5 21.1387C5 8.05785 10.4217 1.00056 12.6388 1C14.8563 1.00056 20.2777 8.0574 20.2777 21.1387C20.2777 34.3556 15.5346 43.3157 15.3333 43.6907L15.1371 44.0552H10.1406L9.94444 43.6907C9.74311 43.3156 5 34.3556 5 21.1387ZM11.9447 2.84381V2.84373L11.9448 2.84369L11.9447 2.84381ZM11.9447 2.84381V24.6113H13.3336V2.84373C15.1113 4.43053 18.8891 10.2033 18.8891 21.1388C18.8891 24.7881 18.5054 28.118 17.9585 31.026C17.1547 29.8819 15.6773 28.3246 12.9848 26.7864C6.43809 23.045 6.51764 17.9077 6.52298 17.6908H6.52124C7.20353 8.97415 10.3648 4.2555 11.9447 2.84381ZM6.5248 24.7798C6.46577 23.9569 6.43105 23.1132 6.41195 22.2538C7.40505 24.0992 9.16716 26.205 12.2953 27.9931C16.7407 30.534 17.5018 33.0474 17.5209 33.1107L17.5211 33.1113C17.1808 34.5974 16.8076 35.9464 16.4343 37.1339C15.8492 36.0974 14.818 34.8231 12.9968 33.738C7.51236 30.4724 6.64613 25.7345 6.5248 24.7798ZM13.3335 42.6668H14.2936L14.2934 42.6665C14.5694 42.0971 15.1284 40.8783 15.7639 39.1248C15.6284 38.5467 14.9792 36.5346 12.2847 34.9304C9.83516 33.4705 8.22404 31.7327 7.15982 30.1042C8.29698 36.766 10.3595 41.3787 10.9845 42.6668H11.9446V37.8055H13.3335V42.6668Z"
					fill="white"/>
		<path
			d="M12.6388 1L12.6389 0.875L12.6388 0.875L12.6388 1ZM15.3333 43.6907L15.4433 43.7499L15.4434 43.7498L15.3333 43.6907ZM15.1371 44.0552V44.1802H15.2118L15.2471 44.1145L15.1371 44.0552ZM10.1406 44.0552L10.0306 44.1145L10.0659 44.1802H10.1406V44.0552ZM9.94444 43.6907L9.83431 43.7498L9.83437 43.7499L9.94444 43.6907ZM11.9447 2.84373L11.9044 2.7254L11.8197 2.75423V2.84373H11.9447ZM11.9448 2.84369L12.0281 2.93691L11.9045 2.72535L11.9448 2.84369ZM11.9447 24.6113H11.8197V24.7363H11.9447V24.6113ZM13.3336 24.6113V24.7363H13.4586V24.6113H13.3336ZM13.3336 2.84373L13.4168 2.75048L13.2086 2.56461V2.84373H13.3336ZM17.9585 31.026L17.8563 31.0978L18.0266 31.3403L18.0814 31.0491L17.9585 31.026ZM12.9848 26.7864L12.9227 26.8949L12.9227 26.8949L12.9848 26.7864ZM6.52298 17.6908L6.64794 17.6939L6.65109 17.5658H6.52298V17.6908ZM6.52124 17.6908L6.39662 17.681L6.38608 17.8158H6.52124V17.6908ZM6.41195 22.2538L6.52203 22.1946L6.28698 22.2566L6.41195 22.2538ZM6.5248 24.7798L6.39993 24.7888L6.4008 24.7956L6.5248 24.7798ZM12.2953 27.9931L12.2333 28.1016H12.2333L12.2953 27.9931ZM17.5209 33.1107L17.4013 33.1469L17.4013 33.1471L17.5209 33.1107ZM17.5211 33.1113L17.643 33.1392L17.6504 33.1068L17.6407 33.0749L17.5211 33.1113ZM16.4343 37.1339L16.3255 37.1953L16.4671 37.4463L16.5536 37.1713L16.4343 37.1339ZM12.9968 33.738L13.0608 33.6307L13.0608 33.6306L12.9968 33.738ZM14.2936 42.6668V42.7918H14.5094L14.402 42.6046L14.2936 42.6668ZM13.3335 42.6668H13.2085V42.7918H13.3335V42.6668ZM14.2934 42.6665L14.1809 42.612L14.1521 42.6715L14.185 42.7288L14.2934 42.6665ZM15.7639 39.1248L15.8814 39.1674L15.894 39.1325L15.8856 39.0963L15.7639 39.1248ZM12.2847 34.9304L12.2207 35.0378L12.2208 35.0378L12.2847 34.9304ZM7.15982 30.1042L7.26446 30.0358L7.0366 30.1252L7.15982 30.1042ZM10.9845 42.6668L10.872 42.7214L10.9062 42.7918H10.9845V42.6668ZM11.9446 42.6668V42.7918H12.0696V42.6668H11.9446ZM11.9446 37.8055V37.6805H11.8196V37.8055H11.9446ZM13.3335 37.8055H13.4585V37.6805H13.3335V37.8055ZM12.6388 0.875C12.3302 0.875077 11.9803 0.997098 11.6092 1.22209C11.2368 1.44796 10.8346 1.78273 10.4191 2.22147C9.58816 3.09906 8.69578 4.40162 7.8753 6.11012C6.23389 9.52803 4.875 14.5813 4.875 21.1387H5.125C5.125 14.6152 6.47694 9.59943 8.10066 6.21835C8.91274 4.52736 9.79149 3.24793 10.6007 2.39336C11.0053 1.966 11.3904 1.64714 11.7389 1.43586C12.0887 1.2237 12.3932 1.12506 12.6389 1.125L12.6388 0.875ZM20.4027 21.1387C20.4027 14.5811 19.0439 9.5278 17.4025 6.10996C16.582 4.40148 15.6897 3.09897 14.8587 2.2214C14.4433 1.78268 14.041 1.44793 13.6686 1.22207C13.2975 0.997087 12.9475 0.875077 12.6389 0.875L12.6388 1.125C12.8846 1.12506 13.1891 1.2237 13.5389 1.43584C13.8874 1.64711 14.2725 1.96596 14.6772 2.3933C15.4863 3.24784 16.3651 4.52722 17.1772 6.21818C18.8008 9.59921 20.1527 14.615 20.1527 21.1387H20.4027ZM15.4434 43.7498C15.6499 43.3653 20.4027 34.3842 20.4027 21.1387H20.1527C20.1527 34.3269 15.4194 43.2661 15.2231 43.6315L15.4434 43.7498ZM15.2471 44.1145L15.4433 43.7499L15.2232 43.6314L15.027 43.996L15.2471 44.1145ZM10.1406 44.1802H15.1371V43.9302H10.1406V44.1802ZM9.83437 43.7499L10.0306 44.1145L10.2507 43.996L10.0545 43.6314L9.83437 43.7499ZM4.875 21.1387C4.875 34.3842 9.62787 43.3652 9.83431 43.7498L10.0546 43.6315C9.85835 43.2659 5.125 34.3269 5.125 21.1387H4.875ZM11.8197 2.84373V2.84381H12.0697V2.84373H11.8197ZM11.9045 2.72535L11.9044 2.7254L11.9849 2.96207L11.9851 2.96202L11.9045 2.72535ZM12.0279 2.93703L12.0281 2.93691L11.8615 2.75046L11.8614 2.75058L12.0279 2.93703ZM12.0697 24.6113V2.84381H11.8197V24.6113H12.0697ZM13.3336 24.4863H11.9447V24.7363H13.3336V24.4863ZM13.2086 2.84373V24.6113H13.4586V2.84373H13.2086ZM19.0141 21.1388C19.0141 10.1775 15.2277 4.36685 13.4168 2.75048L13.2503 2.93699C14.995 4.49421 18.7641 10.229 18.7641 21.1388H19.0141ZM18.0814 31.0491C18.6295 28.1345 19.0141 24.7969 19.0141 21.1388H18.7641C18.7641 24.7794 18.3813 28.1014 17.8357 31.0029L18.0814 31.0491ZM12.9227 26.8949C15.6003 28.4246 17.0636 29.9697 17.8563 31.0978L18.0608 30.9541C17.2458 29.7941 15.7542 28.2246 13.0468 26.6778L12.9227 26.8949ZM6.39802 17.6877C6.39202 17.9314 6.32188 23.1226 12.9227 26.8949L13.0468 26.6778C6.5543 22.9675 6.64326 17.884 6.64794 17.6939L6.39802 17.6877ZM6.52124 17.8158H6.52298V17.5658H6.52124V17.8158ZM11.8614 2.7506C10.2517 4.18898 7.08074 8.94107 6.39662 17.681L6.64586 17.7006C7.32633 9.00723 10.4779 4.32203 12.028 2.93702L11.8614 2.7506ZM6.28698 22.2566C6.30611 23.1175 6.34091 23.9633 6.40012 24.7888L6.64948 24.7709C6.59064 23.9505 6.55599 23.1089 6.53692 22.2511L6.28698 22.2566ZM12.3574 27.8845C9.24952 26.1081 7.50405 24.0194 6.52203 22.1946L6.30188 22.3131C7.30606 24.179 9.08481 26.3019 12.2333 28.1016L12.3574 27.8845ZM17.6406 33.0745C17.6125 32.9819 16.8316 30.442 12.3574 27.8845L12.2333 28.1016C16.6498 30.626 17.391 33.1129 17.4013 33.1469L17.6406 33.0745ZM17.6407 33.0749L17.6405 33.0743L17.4013 33.1471L17.4015 33.1477L17.6407 33.0749ZM16.5536 37.1713C16.9278 35.9808 17.3019 34.6286 17.643 33.1392L17.3993 33.0834C17.0597 34.5662 16.6873 35.9119 16.3151 37.0964L16.5536 37.1713ZM12.9328 33.8454C14.7338 34.9185 15.7502 36.1763 16.3255 37.1953L16.5432 37.0724C15.9483 36.0186 14.9022 34.7278 13.0608 33.6307L12.9328 33.8454ZM6.4008 24.7956C6.52473 25.7707 7.40259 30.5525 12.9328 33.8454L13.0608 33.6306C7.62212 30.3923 6.76753 25.6982 6.6488 24.7641L6.4008 24.7956ZM14.2936 42.5418H13.3335V42.7918H14.2936V42.5418ZM14.185 42.7288L14.1851 42.7291L14.402 42.6046L14.4018 42.6043L14.185 42.7288ZM15.6463 39.0823C15.0126 40.8311 14.4553 42.0459 14.1809 42.612L14.4059 42.7211C14.6835 42.1482 15.2443 40.9255 15.8814 39.1674L15.6463 39.0823ZM12.2208 35.0378C14.8794 36.6207 15.5125 38.5999 15.6422 39.1534L15.8856 39.0963C15.7444 38.4935 15.0789 36.4485 12.3487 34.823L12.2208 35.0378ZM7.05518 30.1726C8.12907 31.8158 9.7537 33.5675 12.2207 35.0378L12.3487 34.823C9.91661 33.3735 8.31902 31.6495 7.26446 30.0358L7.05518 30.1726ZM11.097 42.6123C10.4756 41.3315 8.41769 36.7302 7.28304 30.0831L7.0366 30.1252C8.17627 36.8017 10.2435 41.4258 10.872 42.7214L11.097 42.6123ZM11.9446 42.5418H10.9845V42.7918H11.9446V42.5418ZM11.8196 37.8055V42.6668H12.0696V37.8055H11.8196ZM13.3335 37.6805H11.9446V37.9305H13.3335V37.6805ZM13.4585 42.6668V37.8055H13.2085V42.6668H13.4585Z"
			fill="black"/>
	</g>
	<defs>
		<filter id="filter0_d_0_2964" x="0.875" y="0.875" width="23.5277" height="51.3053" filterUnits="userSpaceOnUse"
						color-interpolation-filters="sRGB">
			<feFlood flood-opacity="0" result="BackgroundImageFix"/>
			<feColorMatrix in="SourceAlpha" type="matrix" values="0 0 0 0 0 0 0 0 0 0 0 0 0 0 0 0 0 0 127 0"
										 result="hardAlpha"/>
			<feOffset dy="4"/>
			<feGaussianBlur stdDeviation="2"/>
			<feColorMatrix type="matrix" values="0 0 0 0 0 0 0 0 0 0 0 0 0 0 0 0 0 0 0.25 0"/>
			<feBlend mode="normal" in2="BackgroundImageFix" result="effect1_dropShadow_0_2964"/>
			<feBlend mode="normal" in="SourceGraphic" in2="effect1_dropShadow_0_2964" result="shape"/>
		</filter>
	</defs>
</svg>
